<?xml version="1.0" standalone="no"?>
<!DOCTYPE svg PUBLIC "-//W3C//DTD SVG 20010904//EN"
 "http://www.w3.org/TR/2001/REC-SVG-20010904/DTD/svg10.dtd">
<svg version="1.0" xmlns="http://www.w3.org/2000/svg"
 width="512.000000pt" height="512.000000pt" viewBox="0 0 512.000000 512.000000"
 preserveAspectRatio="xMidYMid meet">
<metadata>
Created by potrace 1.11, written by Peter Selinger 2001-2013
</metadata>
<g transform="translate(0.000000,512.000000) scale(0.100000,-0.100000)"
fill="#000000" stroke="none">
<path d="M2087 5096 c12 -16 20 -20 25 -12 5 7 8 5 8 -6 0 -10 5 -18 11 -18 5
0 7 -4 4 -10 -6 -9 8 -14 28 -11 4 0 7 -3 7 -9 0 -15 33 -50 47 -50 7 0 13 -6
13 -13 0 -14 56 -67 71 -67 5 0 9 -8 9 -19 0 -11 9 -21 21 -24 12 -3 18 -10
14 -16 -3 -6 1 -11 10 -11 9 0 14 -4 11 -8 -2 -4 11 -18 30 -31 18 -13 31 -27
28 -32 -3 -5 2 -9 10 -9 9 0 16 -7 16 -15 0 -14 12 -20 33 -16 5 1 6 -3 3 -8
-3 -5 6 -16 19 -25 14 -9 23 -21 20 -25 -5 -9 23 -26 38 -22 5 1 5 -3 2 -9 -4
-7 2 -14 14 -17 12 -3 21 -10 21 -17 0 -6 18 -26 40 -45 22 -19 40 -41 40 -48
0 -7 7 -13 15 -13 8 0 15 -7 15 -17 0 -9 3 -14 6 -10 8 8 54 -34 48 -45 -3 -4
2 -8 10 -8 9 0 16 -7 16 -15 0 -8 7 -15 15 -15 8 0 15 -7 15 -15 0 -8 9 -15
20 -15 11 0 20 -7 20 -15 0 -8 5 -15 10 -15 6 0 16 -11 22 -25 6 -14 19 -25
28 -25 10 0 20 -9 23 -21 4 -13 10 -18 18 -13 8 4 10 3 5 -5 -4 -6 1 -14 14
-19 12 -4 21 -11 21 -15 -2 -21 0 -28 8 -23 5 3 12 -1 15 -10 3 -8 11 -12 17
-8 8 5 9 3 5 -5 -5 -8 0 -14 13 -18 11 -3 18 -9 15 -14 -2 -5 4 -14 16 -21 11
-7 20 -19 20 -26 0 -7 4 -11 9 -7 5 3 13 -4 16 -16 6 -17 9 -19 16 -8 6 10 9
8 9 -8 0 -14 6 -23 15 -23 8 0 15 -4 15 -10 0 -15 38 -50 55 -50 8 0 15 -5 15
-11 0 -7 8 -18 18 -25 9 -7 17 -18 17 -26 0 -7 10 -14 21 -16 12 -2 24 -12 27
-24 3 -11 10 -17 16 -13 6 3 11 -1 11 -9 0 -15 34 -56 46 -56 10 0 34 -28 34
-39 0 -6 5 -11 10 -11 6 0 19 -9 30 -20 11 -11 20 -24 20 -30 0 -9 14 -14 33
-11 4 0 6 -2 5 -6 -3 -16 15 -43 28 -43 8 0 14 -7 14 -15 0 -14 12 -19 33 -16
4 0 7 -6 7 -14 0 -8 5 -15 11 -15 5 0 8 -4 5 -9 -4 -5 -2 -11 2 -13 5 -1 -9
-75 -30 -163 -20 -88 -39 -169 -42 -180 -10 -46 -61 -266 -117 -502 -32 -139
-59 -256 -60 -260 0 -4 -13 42 -28 102 -16 61 -47 180 -69 265 -22 85 -44 170
-47 189 -3 19 -7 37 -9 40 -3 5 -102 388 -121 466 -3 11 -13 54 -24 95 -79
307 -76 294 -86 338 -4 17 -13 32 -19 33 -91 5 -861 -2 -867 -8 -4 -4 -10 -19
-13 -33 -2 -14 -16 -70 -31 -125 -14 -55 -28 -107 -30 -115 -3 -8 -13 -49 -25
-90 -11 -41 -22 -88 -25 -104 -3 -16 -8 -32 -10 -35 -4 -8 -66 -238 -72 -271
-2 -14 -8 -28 -12 -33 -4 -4 -64 20 -134 53 -70 33 -133 60 -140 60 -7 0 -17
4 -22 9 -6 5 -27 14 -47 21 -21 6 -40 15 -42 18 -2 4 -16 61 -30 127 -15 66
-31 140 -37 165 -12 52 -18 77 -24 105 -3 11 -7 29 -9 40 -3 11 -14 62 -25
114 -11 51 -22 95 -25 98 -6 7 -956 7 -962 0 -3 -3 2 -29 11 -60 8 -30 18 -63
20 -73 2 -11 26 -100 53 -199 27 -99 47 -183 43 -186 -3 -4 -40 -10 -81 -13
-98 -9 -109 -11 -210 -30 -126 -24 -124 -23 -189 -42 l-61 -17 0 -153 c0 -85
2 -154 5 -154 3 0 43 11 91 25 227 66 532 102 540 65 11 -50 181 -681 190
-703 4 -11 1 -17 -7 -17 -83 0 -301 -10 -324 -15 -16 -3 -63 -13 -103 -21 -93
-19 -226 -66 -319 -112 l-73 -36 0 -1103 0 -1103 918 0 918 0 35 48 c152 202
238 407 284 672 3 19 8 100 11 180 3 80 10 159 15 176 5 17 11 40 13 50 2 10
25 96 50 190 26 94 48 180 50 191 3 11 13 51 25 89 11 38 52 191 91 339 40
149 74 274 77 278 6 11 42 -38 102 -138 126 -210 148 -264 227 -565 8 -30 16
-62 19 -70 43 -149 63 -238 70 -314 4 -40 5 -330 1 -376 -5 -51 -18 -152 -22
-175 -3 -11 -7 -36 -10 -55 -3 -19 -10 -53 -16 -75 -5 -22 -12 -49 -14 -59 -9
-47 -67 -222 -99 -298 -19 -45 -35 -84 -35 -85 0 -2 73 -2 162 -1 l161 3 24
65 c63 170 108 358 137 575 3 22 9 108 12 190 4 83 8 152 10 154 2 2 159 4
350 5 300 1 347 3 349 16 2 8 8 35 15 60 7 25 14 53 15 62 2 10 6 22 9 26 4 6
69 248 81 302 2 8 4 15 5 15 1 0 3 7 5 15 1 8 10 42 19 75 17 60 22 80 30 112
3 10 21 79 42 153 20 74 51 191 70 260 19 69 36 134 39 145 2 11 18 69 35 128
17 60 32 118 34 130 3 12 5 22 6 22 1 0 3 7 5 15 1 8 8 35 15 60 7 25 14 52
16 60 25 99 40 135 57 132 9 -2 17 -10 17 -18 0 -8 5 -14 11 -14 5 0 7 -4 4
-10 -3 -5 0 -10 8 -10 8 0 17 -7 21 -15 3 -8 12 -15 20 -15 7 0 16 -9 19 -21
3 -12 10 -18 17 -14 6 3 10 3 9 -2 -4 -21 3 -31 22 -36 12 -3 18 -10 15 -16
-4 -6 5 -13 19 -17 16 -4 25 -13 25 -25 0 -10 7 -19 15 -19 8 0 15 -7 15 -16
0 -8 4 -13 9 -9 5 3 13 -4 16 -16 6 -17 9 -19 16 -8 6 10 9 8 9 -9 0 -13 4
-21 9 -18 5 3 12 -1 15 -10 3 -8 11 -12 16 -9 6 4 10 3 9 -2 -4 -18 14 -43 33
-43 10 0 17 -4 13 -9 -3 -6 3 -15 14 -20 11 -6 23 -20 26 -31 4 -11 11 -18 16
-15 5 4 9 -2 9 -12 0 -14 2 -15 9 -5 6 10 10 8 14 -8 3 -13 10 -19 17 -15 6 3
10 3 9 -2 -4 -21 2 -33 16 -33 8 0 15 -6 15 -14 0 -7 9 -16 20 -19 11 -3 23
-13 27 -23 8 -22 40 -54 53 -54 6 0 10 -7 10 -15 0 -8 6 -14 13 -12 6 1 11 -4
9 -11 -1 -8 7 -16 18 -19 11 -3 17 -10 13 -16 -3 -6 -1 -7 5 -3 9 5 12 389 12
1527 l0 1519 -1525 0 -1526 0 18 -24z m-381 -2204 c49 -26 98 -52 107 -57 15
-9 14 -20 -13 -120 -17 -61 -32 -119 -34 -130 -3 -11 -13 -50 -24 -87 -11 -37
-19 -69 -18 -70 1 -2 -1 -2 -3 0 -3 1 -6 12 -8 24 -2 11 -12 57 -23 102 -10
44 -26 113 -34 151 -9 39 -24 107 -34 153 -11 45 -16 82 -13 82 3 0 47 -22 97
-48z"/>
</g>
</svg>
